<svg xmlns="http://www.w3.org/2000/svg" height="24" width="24"><path d="m12 21-1.45-1.3q-3.925-3.5-6.238-6.088Q2 11.025 2 8.15 2 5.8 3.575 4.225 5.15 2.65 7.5 2.65q1.325 0 2.5.562 1.175.563 2 1.538.825-.975 2-1.538 1.175-.562 2.5-.562 2.35 0 3.925 1.575Q22 5.8 22 8.15q0 2.875-2.312 5.462Q17.375 16.2 13.45 19.7Zm0-9.525Zm0 6.825q3.575-3.25 5.788-5.6Q20 10.35 20 8.15q0-1.5-1-2.5t-2.5-1q-1.175 0-2.175.662-1 .663-1.375 1.688h-1.9q-.375-1.025-1.375-1.688-1-.662-2.175-.662-1.5 0-2.5 1t-1 2.5q0 2.2 2.213 4.55Q8.425 15.05 12 18.3Z"/></svg>